# xmcd CD database file
#
# Track frame offsets:
#	150
#	19465
#	35183
#	54403
#
# Disc length: 923 seconds
#
# Revision: 0
# Processed by: cddbd v1.5.1PL2 Copyright (c) Steve Scherf et al.
# Submitted via: CDex 1.51
#
DISCID=33039904
DTITLE=Corner/Fine Lines - small happiness
DYEAR=2005
DGENRE=Rock
TTITLE0=march
TTITLE1=夢寐ｍｏｖｉｅ
TTITLE2=Dud
TTITLE3=Good Bye
EXTD=YEAR: 2005
EXTT0=
EXTT1=
EXTT2=
EXTT3=
PLAYORDER=
